<svg height="512pt" viewBox="-54 0 512 512" width="512pt" xmlns="http://www.w3.org/2000/svg"><path d="m405 376.671875c0-20.679687-16.820312-37.5-37.5-37.5-20.675781 0-37.5 16.820313-37.5 37.5 0 18.109375 12.90625 33.261719 30 36.746094v59.582031c0 1.378906-1.121094 2.5-2.5 2.5h-45.5v-31c0-24.484375-13.105469-45.964844-32.667969-57.800781 6.695313-14.804688 10.207031-31.050781 10.207031-47.421875v-25.761719c2.742188-1.007813 5.539063-2.261719 8.363282-3.792969 19.082031-10.335937 51.097656-40.128906 51.097656-123.511718 0-38.179688-16.6875-83.894532-44.636719-122.28125-2.441406-3.351563-7.128906-4.085938-10.480469-1.648438-3.347656 2.4375-4.085937 7.128906-1.648437 10.476562 26.152344 35.917969 41.765625 78.332032 41.765625 113.453126 0 31.472656-4.796875 57.503906-14.261719 77.375-9.148437 19.214843-20.8125 28.523437-28.980469 32.949218-13.148437 7.121094-26.828124 6.132813-29.003906 2.386719-1.910156-4.089844-2.183594-9.429687-2.246094-13.996094-.144531-10.25 1.222657-23.890625 2.804688-39.6875.394531-3.9375.800781-8 1.199219-12.167969 4.480469-46.792968-24.917969-90.367187-69.90625-103.605468-25.65625-7.550782-43.582031-18.46875-53.269531-32.453125-2.640626-3.808594-7.148438-5.878907-11.789063-5.402344-4.660156.480469-8.683594 3.449219-10.507813 7.75-3.773437 8.910156-10.171874 21.542969-19.203124 31.128906-19.535157 20.734375-29.222657 48.761719-26.582032 76.898438 1.253906 13.34375 6.851563 81.921875-.675781 91.664062-3.160156 1.574219-8.808594-.6875-11.929687-2.359375-16.582032-8.886718-42.132813-39.480468-44.546876-87.347656-2.125-42.078125 28.828126-117.011719 73.425782-154.316406 21.433594-17.929688 42.703125-24.605469 63.222656-19.847656 2.695312.625 5.507812-.28125 7.332031-2.359376.152344-.175781 16.027344-17.820312 49.46875-17.820312 19.375 0 41.914063 12.011719 63.460938 33.828125 2.914062 2.945313 7.660156 2.972656 10.609375.0625 2.945312-2.910156 2.972656-7.660156.0625-10.605469-24.390625-24.6875-50.714844-38.285156-74.132813-38.285156-31.386719 0-50.316406 13.433594-57.480469 19.75-23.773437-4.078125-48.632812 4.082031-72.167968 23.773438-49.300782 41.238281-81.089844 120.886718-78.785156 166.574218 2.496093 49.488282 28.609374 87.042969 52.445312 99.8125 2.339844 1.253906 4.644531 2.253906 6.894531 3.003906v26.363282c0 16.371094 3.511719 32.617187 10.207031 47.421875-19.5625 11.835937-32.667968 33.316406-32.667968 57.800781v3.5c0 4.140625 3.355468 7.5 7.5 7.5 4.144531 0 7.5-3.359375 7.5-7.5v-3.5c0-18.765625 9.898437-35.265625 24.746094-44.550781 4.65625 7.488281 10.152343 14.417969 16.410156 20.671875 19.953125 19.953125 45.941406 31.675781 73.84375 33.457031v18.921875c0 9.648438 7.851562 17.5 17.5 17.5h112.503906v6.5h-245.003906v-17.167969c0-4.140625-3.355469-7.5-7.5-7.5-4.144532 0-7.5 3.359375-7.5 7.5v24.667969c0 4.140625 3.355468 7.5 7.5 7.5h260.003906c4.140625 0 7.5-3.359375 7.5-7.5v-14h45.5c9.648438 0 17.5-7.851562 17.5-17.5v-59.582031c17.097656-3.484375 30-18.636719 30-36.746094zm-130.460938-59.898437v22.507812c0 14.203125-3.035156 28.292969-8.824218 41.132812-6.265625-2.078124-12.933594-3.261718-19.855469-3.398437-.269531-.289063-.558594-.558594-.863281-.8125l-32.1875-26.511719c-.191406-.15625-.390625-.304687-.589844-.449218v-10.335938c15.960938-5.46875 30.542969-14.367188 42.757812-26.082031 5.664063 3.398437 13.023438 4.367187 19.5625 3.949219zm-100.042968 56.542968-22.71875-20.472656v-9.894531c7.4375 1.476562 15.046875 2.222656 22.71875 2.222656 7.675781 0 15.285156-.746094 22.722656-2.222656v9.894531zm-32.429688-9.035156 21.03125 18.957031-24.722656 21.140625-20.1875-20.425781zm64.859375 0 23.882813 19.671875-20.191406 20.425781-24.722657-21.140625zm-132.46875-25v-25.382812c5.675781-1.464844 9.035157-4.542969 11.382813-9.761719 2.042968 2.40625 4.1875 4.730469 6.421875 6.964843 2.703125 2.707032 5.574219 5.308594 8.53125 7.734376 3.210937 2.628906 7.933593 2.152343 10.554687-1.046876 2.628906-3.199218 2.160156-7.925781-1.042968-10.554687-2.574219-2.113281-5.078126-4.378906-7.433594-6.738281-4.851563-4.84375-9.195313-10.171875-12.945313-15.855469.371094-4.457031.578125-9.511719.640625-15.234375.175782-16.332031-.960937-37.667969-3.378906-63.417969-2.238281-23.84375 5.984375-47.613281 22.566406-65.210937 9.382813-9.960938 16.1875-22.386719 20.570313-32.078125 12.007812 15.335937 31.847656 27.152343 59.046875 35.15625 38.105468 11.214843 63.007812 48.132812 59.210937 87.789062-.398437 4.144531-.800781 8.183594-1.195312 12.101563-2.515625 25.113281-4.4375 44.324218-1.078125 56.570312-12.144532 12.210938-27.15625 21.125-43.675782 25.894532-9.074218 2.628906-18.539062 3.960937-28.132812 3.960937s-19.0625-1.332031-28.144531-3.964844c-3.425781-.988281-6.839844-2.171875-10.140625-3.523437-3.839844-1.566406-8.214844.273437-9.78125 4.109375-1.5625 3.835937.273437 8.214843 4.109375 9.777343 2.050781.835938 4.132812 1.617188 6.234375 2.339844v10.335938c-.199219.140625-.394532.289062-.589844.449218l-32.1875 26.511719c-.304688.253907-.59375.523438-.863281.808594-6.921875.136719-13.589844 1.324219-19.851563 3.402344-5.792968-12.84375-8.828125-26.933594-8.828125-41.136719zm16.1875 54.574219c4.414063-1.210938 9.058594-1.855469 13.851563-1.855469h.554687l26.257813 26.566406c3.480468 3.519532 9.160156 3.757813 12.929687.539063l30.261719-25.878907 30.261719 25.882813c3.757812 3.207031 9.4375 2.988281 12.929687-.546875l26.253906-26.5625h.554688c4.792969 0 9.441406.644531 13.855469 1.855469-18.382813 28.246093-49.773438 45.464843-83.859375 45.464843-26.71875 0-51.839844-10.40625-70.734375-29.304687-4.933594-4.929687-9.324219-10.34375-13.117188-16.160156zm93.855469 81.644531c-1.378906 0-2.5-1.121094-2.5-2.5v-18.921875c37.085938-2.402344 70.640625-22.527344 90.253906-54.125 14.847656 9.285156 24.746094 25.78125 24.746094 44.546875v31zm183-76.328125c-12.40625 0-22.5-10.09375-22.5-22.5s10.09375-22.5 22.5-22.5 22.5 10.09375 22.5 22.5-10.09375 22.5-22.5 22.5zm0 0"/></svg>