<?xml version="1.0"?>
<svg xmlns="http://www.w3.org/2000/svg" viewBox="0 0 512 512" width="512" height="512"><g id="Out_line" data-name="Out line"><path d="M224,144a8,8,0,0,0,0-16H208a8,8,0,0,0,0,16Z"/><path d="M312,136a8.00039,8.00039,0,0,0-8-8H288a8,8,0,0,0,0,16h16A8.00039,8.00039,0,0,0,312,136Z"/><path d="M246.05957,183.76074a7.98886,7.98886,0,0,0,9.70117-5.82031l8-32a7.99965,7.99965,0,1,0-15.52148-3.88086l-8,32A7.999,7.999,0,0,0,246.05957,183.76074Z"/><path d="M275.5625,201.34375a35.17618,35.17618,0,0,1-39.125,0,7.99982,7.99982,0,0,0-8.875,13.3125,51.13058,51.13058,0,0,0,56.875,0,7.99982,7.99982,0,1,0-8.875-13.3125Z"/><circle cx="216" cy="160" r="8"/><circle cx="296" cy="160" r="8"/><path d="M446.29,386.91992a185.11032,185.11032,0,0,0-98.86011-94.25,176.35523,176.35523,0,0,0,56.69019-21.81006A8.00933,8.00933,0,0,0,405,257.75a98.09208,98.09208,0,0,1-37-76.97V170.58984a35.89416,35.89416,0,0,0,0-45.17993v-41.99A42.25518,42.25518,0,0,0,308.49,44.8501,50.17082,50.17082,0,0,0,263.02,16H241a97.10471,97.10471,0,0,0-97,97v12.40991a35.89416,35.89416,0,0,0,0,45.17993V180.78a98.09208,98.09208,0,0,1-37,76.97,8.00933,8.00933,0,0,0,.87988,13.10986,176.35523,176.35523,0,0,0,56.69019,21.81006,185.11032,185.11032,0,0,0-98.86011,94.25A8.00332,8.00332,0,0,0,71.05005,398.01L80,400.25V496H96V404.25l40,10V496h16V409.29785a163.62513,163.62513,0,0,0-8.41016-51.82812l-15.17968,5.06054a147.60563,147.60563,0,0,1,7.12939,35.10962l-50.9895-12.74975A169.00318,169.00318,0,0,1,177.15991,305.01l27-9.53L272,363.31006V496h16V360a8.00827,8.00827,0,0,0-2.34009-5.66016L267.32007,336l40.52-40.52,27,9.53A169.00318,169.00318,0,0,1,427.45,384.89014l-50.9895,12.74975a147.60563,147.60563,0,0,1,7.12939-35.10962l-15.17968-5.06054A163.62513,163.62513,0,0,0,360,409.29785V496h16V414.25l40-10V496h16V400.25l8.95-2.24A8.00332,8.00332,0,0,0,446.29,386.91992ZM360,148a20.03477,20.03477,0,0,1-16,19.6001V128.3999A20.03456,20.03456,0,0,1,360,148ZM160,113a81.09626,81.09626,0,0,1,81-81h22.02a34.2001,34.2001,0,0,1,33.22,25.93994,8.00423,8.00423,0,0,0,11.34009,5.22l6.42993-3.22a26.25123,26.25123,0,0,1,37.99,23.48v30.64014A35.83612,35.83612,0,0,0,340,112H328.98a34.2001,34.2001,0,0,1-33.22-25.93994A8.00212,8.00212,0,0,0,283,81.75,138.487,138.487,0,0,1,196.78,112H172a35.83612,35.83612,0,0,0-12,2.06006ZM280,249.33008V263.02a32.37235,32.37235,0,0,0,.42993,5.23L256,292.68994,231.57007,268.25A32.37235,32.37235,0,0,0,232,263.02V249.33008A7.9879,7.9879,0,0,0,227.2,242,72.021,72.021,0,0,1,184,176V128h12.78a154.61843,154.61843,0,0,0,87.5-27.28A50.14868,50.14868,0,0,0,328,127.98V176a72.07853,72.07853,0,0,1-43.18994,66A7.9975,7.9975,0,0,0,280,249.33008ZM168,128.3999v39.2002a20.00512,20.00512,0,0,1,0-39.2002ZM125.76,262.48a113.83993,113.83993,0,0,0,34.22-80.55,35.24039,35.24039,0,0,0,8.37012,1.88013A88.0142,88.0142,0,0,0,216,254.39014V263.02a16.03657,16.03657,0,0,1-10.66992,15.08984L199.98,280H198.6499A160.40435,160.40435,0,0,1,125.76,262.48Zm130.24,62.21-36.39014-36.38989a31.01,31.01,0,0,0,4.78028-4.59009l25.95,25.95a8.01478,8.01478,0,0,0,11.31982,0l25.95-25.94995a31.88593,31.88593,0,0,0,4.78028,4.58008Zm50.67993-46.58008A16.032,16.032,0,0,1,296,263.02V254.3999a88.0864,88.0864,0,0,0,47.6499-70.58984,35.24039,35.24039,0,0,0,8.37012-1.88013A113.83993,113.83993,0,0,0,386.24,262.48,160.40435,160.40435,0,0,1,313.3501,280H312.03Z"/></g></svg>
